# xmcd
# Copyright (C) 1995-1998 Ti Kan
#
# Track frame offsets:
#       150
#       12549
#       21579
#       34278
#       47204
#       60126
#       71564
#       84527
#       94548
#       106187
#       120054
#       132129
#
# Disc length: 1898 seconds
#
# Revision: 0
# Processed by: cddbd v1.5.2PL0 Copyright (c) Steve Scherf et al.
# Submitted via: CD-Transfer v1.0
#
DISCID=9207680c
DTITLE=Die Jungen Zellberger - 
DYEAR=2005
DGENRE=
TTITLE0=Zellberger Musi
TTITLE1=Boarisch Tanzt Im Zillertal
TTITLE2=Mia Lass'n Glei Oan Aussa
TTITLE3=Madl'n San Wia Erdbeereis
TTITLE4=Fesche Zillertalerin
TTITLE5=Für Immer Uns Ewig
TTITLE6=Auf`n Putz Woll`n Ma Hau`n
TTITLE7=Der Geigenspieler Vom Zillertal
TTITLE8=Du Bist Das Salz In Meiner Suppe
TTITLE9=Wir San Lustig
TTITLE10=Zellberg Boarisch
TTITLE11=Wenn Dei Herzerl Samba Tanzt
EXTD=
EXTT0=
EXTT1=
EXTT2=
EXTT3=
EXTT4=
EXTT5=
EXTT6=
EXTT7=
EXTT8=
EXTT9=
EXTT10=
EXTT11=
PLAYORDER=
